{"title":"Brotherhood (divX)(2010)(NTSC)(AC3)(DD5.1)(Nl Subs extern) TBS ","uid":6310685,"size":1566083905,"categoryP":"video","categoryS":"movies","magnet":"?xt=urn:btih:4f3e3051ee8b1b4ea3650410676e597785c04968&amp;dn=Brotherhood+%28divX%29%282010%29%28NTSC%29%28AC3%29%28DD5.1%29%28Nl+Subs+extern%29+TBS+&amp;tr=udp%3A%2F%2Ftracker.openbittorrent.com%3A80&amp;tr=udp%3A%2F%2Fopen.demonii.com%3A1337&amp;tr=udp%3A%2F%2Ftracker.coppersurfer.tk%3A6969&amp;tr=udp%3A%2F%2Fexodus.desync.com%3A6969","seeders":0,"leechers":1,"uploader":"Vlinder.","files":-1,"time":1302522274,"description":"Brotherhood (divX)(2010)(NTSC)(AC3)(DD5.1)(Nl Subs extern) TBS \n\n\n\n\n\nVerenigde Staten\nDrama\n76 minuten\n\ngeregisseerd door Will Canon\nmet Trevor Morgan, Jon Foster en Lou Taylor Pucci\n\nAdam Buckley moet als opdracht voor zijn ontgroening voor een studentenvereniging in zijn laatste nacht een supermarkt overvallen. Wanneer de rituele inwijding echter vreselijk mis gaat blijkt iedere beweging rampzalig te zijn. Adam wordt gedwongen een standpunt in te nemen om een vriend te redden en te beslissen waar zijn loyaliteit ligt.\n\nStoryline\n\nAdam Buckley finds himself in the middle of a convenience store robbery during his last night as a pledge for a college fraternity. When the initiation ritual goes horribly wrong, and every move proves disastrous, Adam is forced to confront a new challenge all together, and he has to take a stand.\n\n\n\n\n\nNFO\n\nSOURCE..........: Brotherhood 2010 BRRip x264 Feel-Free\nSIZE............: 1.45GB\nFORM............: AVI\nVIDEO CODEC.....: XVID \nBITRATE.........: 2253 Kbit/s\nWIDTH &amp; HEIGHT..: 720 X 352\nFRAMES/S........: 23.976 Fps\nAUDIO...........: English\nAUDIO CODE......: AC3\nBITRATE.........: 384kbps\nCHANNELS........: 5\nSAMPLING........: 48.0 kHz\nSubtitles.......: Dutch srt\nCover en label zijn meegepost. \nCategory : Video \nFormat : DivX \nSource : Retail \nSubtitle : Dutch subs extern\n\nFormat                           : DivX\nFormat/Info                      : Hack of AVI\nFile size                        : 1.46 GiB\nDuration                         : 1h 19mn\nOverall bit rate                 : 2 638 Kbps\n\nVideo\nID                               : 0\nFormat                           : MPEG-4 Visual\nFormat profile                   : Advanced Simple@L5\nFormat settings, BVOP            : Yes\nFormat settings, QPel            : No\nFormat settings, GMC             : No warppoints\nFormat settings, Matrix          : Default (H.263)\nMuxing mode                      : Packed bitstream\nCodec ID                         : DX50\nCodec ID/Hint                    : DivX 5\nDuration                         : 1h 19mn\nBit rate                         : 2 244 Kbps\nWidth                            : 720 pixels\nHeight                           : 352 pixels\nDisplay aspect ratio             : 2.045\nFrame rate                       : 23.976 fps\nColor space                      : YUV\nChroma subsampling               : 4:2:0\nBit depth                        : 8 bits\nScan type                        : Progressive\nBits/(Pixel*Frame)               : 0.369\nStream size                      : 1.24 GiB (85%)\nTitle                            : Video \nWriting library                  : XviD 62\n\nAudio\nID                               : 1\nFormat                           : AC-3\nFormat/Info                      : Audio Coding 3\nMode extension                   : CM (complete main)\nCodec ID                         : 2000\nDuration                         : 1h 19mn\nBit rate mode                    : Constant\nBit rate                         : 384 Kbps\nChannel(s)                       : 6 channels\nChannel positions                : Front: L C R, Side: L R, LFE\nSampling rate                    : 48.0 KHz\nBit depth                        : 16 bits\nStream size                      : 217 MiB (15%)\nAlignment                        : Split accross interleaves\nInterleave, duration             : 42 ms (1.00 video frame)\nInterleave, preload duration     : 500 ms\nTitle                            : Audio   \n\n\n\n  &lt;a href=&quot;\nhttp://www.moviemeter.nl/film/70666&quot; rel=&quot;nofollow&quot; target=&quot;_NEW&quot;&gt;\nhttp://www.moviemeter.nl/film/70666&lt;/a&gt; &lt;a href=&quot;\nhttp://www.imdb.com/title/tt1273241&quot; rel=&quot;nofollow&quot; target=&quot;_NEW&quot;&gt;\nhttp://www.imdb.com/title/tt1273241&lt;/a&gt; ","torrent":{"xt":"urn:btih:4f3e3051ee8b1b4ea3650410676e597785c04968","amp;dn":"Brotherhood+%28divX%29%282010%29%28NTSC%29%28AC3%29%28DD5.1%29%28Nl+Subs+extern%29+TBS+","amp;tr":["udp%3A%2F%2Ftracker.openbittorrent.com%3A80","udp%3A%2F%2Fopen.demonii.com%3A1337","udp%3A%2F%2Ftracker.coppersurfer.tk%3A6969","udp%3A%2F%2Fexodus.desync.com%3A6969"],"infoHash":"4f3e3051ee8b1b4ea3650410676e597785c04968","infoHashBuffer":{"type":"Buffer","data":[79,62,48,81,238,139,27,78,163,101,4,16,103,110,89,119,133,192,73,104]},"announce":[],"urlList":[]}}